<?xml version="1.0" ?><svg viewBox="0 0 100 100" xmlns="http://www.w3.org/2000/svg"><g data-name="rekia boyd" id="rekia_boyd"><path d="M66.56913,51.00988a6.82966,6.82966,0,0,0-1.79313-.73445,1.76513,1.76513,0,0,1,.067.48933,2.39772,2.39772,0,0,1-4.79543,0,1.82721,1.82721,0,0,1,.02387-.21778,6.96347,6.96347,0,0,0-2.31346,1.44338l-1.04005-1.08009a9.01075,9.01075,0,0,1,10.62859-1.18362Zm-23.287-.09961a9.01068,9.01068,0,0,0-10.6286-1.18362l.77736,1.28323a6.83249,6.83249,0,0,1,1.79318-.73457,1.76592,1.76592,0,0,0-.067.48945,2.39772,2.39772,0,0,0,4.79543,0,1.82191,1.82191,0,0,0-.02392-.21815,6.96246,6.96246,0,0,1,2.31351,1.44375ZM50.044,75.99369a3.31621,3.31621,0,0,0,1.38283-.36622,4.661,4.661,0,0,0,.42042-.22265h0c.10743-.06544.19239-.12305.27149-.17774a1.2024,1.2024,0,0,1,.36036-.19044,1.53307,1.53307,0,0,1,.50342-.07812,5.79592,5.79592,0,0,0,.669-.06055l.103-.01465a4.18368,4.18368,0,0,0,1.63137-.5293l-.752-1.29885A2.70961,2.70961,0,0,1,53.544,73.398l-.11719.01757a4.46676,4.46676,0,0,1-.50978.04493,2.92684,2.92684,0,0,0-.919.15527,2.64881,2.64881,0,0,0-.731.376c-.05664.03906-.11719.082-.19922.13086a3.14068,3.14068,0,0,1-.28223.14844,1.87985,1.87985,0,0,1-.77736.22266,2.02936,2.02936,0,0,1-.85255-.22266,3.152,3.152,0,0,1-.28663-.15137c-.07715-.0459-.13769-.08887-.19433-.12793a2.632,2.632,0,0,0-.731-.375,2.90832,2.90832,0,0,0-.919-.15625,4.483,4.483,0,0,1-.51027-.04493,4.6768,4.6768,0,0,1-1.26564-.39063l-.6338,1.3594a6.13894,6.13894,0,0,0,1.67532.51368,5.78672,5.78672,0,0,0,.669.06055,1.54212,1.54212,0,0,1,.50391.07812,1.22035,1.22035,0,0,1,.36036.19044c.07861.05469.16357.11328.26563.17383a4.65984,4.65984,0,0,0,.4253.22656,3.34,3.34,0,0,0,1.46242.3672C49.999,75.99467,50.02149,75.99369,50.044,75.99369Zm-.0166-10.01677a6.64612,6.64612,0,0,0,1.94046-.32227,8.43993,8.43993,0,0,0,1.57962-.62989,1.71967,1.71967,0,0,1,.81739-.26661,2.12234,2.12234,0,0,1,1.28909.43068l.8213-1.25589a3.81548,3.81548,0,0,0-2.148-.67481,3.1155,3.1155,0,0,0-1.4507.42579,6.97653,6.97653,0,0,1-1.32376.5293,5.2731,5.2731,0,0,1-1.53225.26368h-.02246a5.27815,5.27815,0,0,1-1.54983-.26368,6.94965,6.94965,0,0,1-1.32034-.52833,3.11574,3.11574,0,0,0-1.4551-.42676,3.80781,3.80781,0,0,0-2.148.67579l.82228,1.25393a2.1664,2.1664,0,0,1,1.28859-.4297,1.71478,1.71478,0,0,1,.82033.26759,8.42737,8.42737,0,0,0,1.57717.62891,6.6587,6.6587,0,0,0,1.96293.32227Zm-22.883-2.334a1.45835,1.45835,0,0,1-.41016-.8174,1.48787,1.48787,0,0,1,.24171-1.01075l-1.23831-.84767a2.92752,2.92752,0,0,0,.3462,3.73639Zm47.60675-.61134a2.9904,2.9904,0,0,0-.48878-2.06448l-1.2383.84767a1.42563,1.42563,0,0,1-.16748,1.82717l1.05861,1.06252A2.95315,2.95315,0,0,0,74.75107,63.03156ZM88.82633,86.14334a2.54475,2.54475,0,0,1,.03626.51691c-.03608.96443-2.48271,3.63843-6.98,4.98684a13.50688,13.50688,0,0,1-8.19764.35523,9.20948,9.20948,0,0,1-4.99435-3.16949,9.83821,9.83821,0,0,1-1.63278-5.37844,18.90233,18.90233,0,0,1,1.06771-7.51233,38.79137,38.79137,0,0,1-8.8182,7.92383,14.10621,14.10621,0,0,1-9.03867,3.64649l-.00006.003-.03247-.00147-.03247.00147-.00006-.003a14.10615,14.10615,0,0,1-9.03866-3.64649,38.78623,38.78623,0,0,1-9.73082-9.08456,19.32052,19.32052,0,0,1,1.50808,8.67306,9.83819,9.83819,0,0,1-1.63271,5.37844,9.20909,9.20909,0,0,1-4.99435,3.16949,13.50594,13.50594,0,0,1-8.19765-.35523c-4.49726-1.34841-6.944-4.02241-6.98-4.98684a2.54435,2.54435,0,0,1,.03625-.51691c.18745-.75191.95028-1.0928,1.40445-2.94091a11.49023,11.49023,0,0,0-.24641-5.57413,12.33518,12.33518,0,0,0-.72248-2.05887c-.00006-.00012-.16449-.44971-.30549-1.02516a11.17723,11.17723,0,0,1-.10394-3.47278c.36853-2.73949,1.16377-2.93108,1.2416-5.14394a11.256,11.256,0,0,0-.20063-2.42845c-.33619-1.76541-.90724-2.34293-.99141-3.82086a8.2435,8.2435,0,0,1,.23291-2.35435c.58076-2.5222,1.1686-4.53786.76912-7.1048-.22724-1.4598-.71125-3.33-.3382-4.81331a17.5455,17.5455,0,0,1,1.41769-3.02513c.09845-.18836.25085-.46083.4253-.86293.22064-.5088.36255-.97713.73811-2.01646.14618-.4046.50892-1.38967,1.2831-3.342a83.07426,83.07426,0,0,1,6.26-12.92795,43.52382,43.52382,0,0,1,5.46268-6.97808c6.44377-6.66,15.29328-8.22945,16.16964-8.37355a29.073,29.073,0,0,1,5.34524-.36915c-.01624.02313-.028.0492-.04388.07263a32.7232,32.7232,0,0,1,3.37584-.06671c.28108.00665.54371.01972.80892.03339l.00824.00049a29.22224,29.22224,0,0,1,3.16625.32935c.07831.01288.24042.04217.43867.08044a35.68271,35.68271,0,0,1,5.29989,1.44766l-.00208.02869c-.00116.03149.0083.06012.00806.09137A29.19765,29.19765,0,0,1,72.5,16.25332a43.515,43.515,0,0,1,5.46268,6.978,83.07538,83.07538,0,0,1,6.26,12.92795c.77418,1.9523,1.13692,2.93737,1.2831,3.34191.37549,1.03939.51746,1.50772.73817,2.01652.17438.4021.32679.67457.42524.86293a17.54712,17.54712,0,0,1,1.41769,3.02513c.373,1.4833-.111,3.35351-.3382,4.81325-.39949,2.567.18835,4.5826.76911,7.10486a8.24084,8.24084,0,0,1,.23292,2.35435c-.08411,1.47793-.65523,2.05539-.99141,3.82086a11.25534,11.25534,0,0,0-.20063,2.42845c.07782,2.21286.873,2.40445,1.2416,5.14394a11.18058,11.18058,0,0,1-.10389,3.47278c-.14105.57545-.30548,1.025-.30548,1.02516a12.32837,12.32837,0,0,0-.72255,2.05881,11.49068,11.49068,0,0,0-.2464,5.57419C87.87612,85.05054,88.63889,85.39143,88.82633,86.14334ZM77.29642,59.08106a35.55706,35.55706,0,0,0-2.37431-4.55031,17.22551,17.22551,0,0,1-2.17692-4.53944,14.73843,14.73843,0,0,1-.554-3.767,28.80373,28.80373,0,0,0-4.98556-.06916c-.929.06788-2.583.23456-9.21579,1.85257-.00006.00006-6.12779,1.42416-8.44167.39625A4.50785,4.50785,0,0,1,48.5,47.73236a4.22667,4.22667,0,0,1-1.09212-1.6188,25.62089,25.62089,0,0,1-1.16036-6.19035c-.23371-3.33154-.36115-4.9977-.62892-5.03121-.46241-.05793-1.61471,2.68309-1.77481,5.79471-.20886,4.05988,1.35281,7.16882.27375,7.80164a3.69137,3.69137,0,0,1-1.55892.03089c-.48311-.033-.7021-.08588-2.04807-.26423-.83248-.11035-.78725-.09528-.84078-.10852C38.47,47.848,37.91893,45.75357,37.3104,43.15007c-.90065-3.85309-1.0425-5.03384-1.32711-5.03579-.37482-.00263-.83607,2.20157-.92226,4.34791-.13153,3.27587.69923,4.21113,0,5.00668-1.19136,1.35518-4.08582-.80977-7.37823.3952-.069.02527-.13111.05829-.19831.08564a22.28758,22.28758,0,0,1-.42145,2.57334,25.33024,25.33024,0,0,1-1.76993,5.03476c-1.1498,2.61094-1.88333,4.17109-2.34977,5.20571q.06729,1.64231.07672,2.86473a4.965,4.965,0,0,0,.564,2.44438,4.10012,4.10012,0,0,0,.59449.82283,20.1533,20.1533,0,0,0-.72615,5.57474c0,4.4698,1.24319,8.99429,3.61871,8.99429,2.15232,0,3.37036-3.71528,3.581-7.73786-.49641-.69862-.97725-1.40536-1.4313-2.09684-.00513.13873-.01038.28168-.01538.39606-.00928.20606-.01563.36622-.01563.44435,0,4.84871-1.39944,7.49426-2.11869,7.49426s-2.11868-2.64555-2.11868-7.49426a19.32793,19.32793,0,0,1,.54835-4.75356,1.6951,1.6951,0,0,0,1.01887.03863,2.11372,2.11372,0,0,0,.78664-.36621l.04278.04046.74043-.44379c.96,1.60257,2.42192,3.9903,4.025,6.21006a37.2931,37.2931,0,0,0,9.923,9.4484l.103.08106A12.55537,12.55537,0,0,0,50.23609,86.013a12.55537,12.55537,0,0,0,8.09559-3.28771l.103-.08106a37.293,37.293,0,0,0,9.923-9.4484,29.49748,29.49748,0,0,0,2.50541-4.43659c.3335-.68166.66261-1.35354,1.0132-2.0059l1.32131.711c-.0097.018-.01837.03736-.028.05542a4.20176,4.20176,0,0,0,.41034.14869,1.93955,1.93955,0,0,0,.52766.07837,19.38792,19.38792,0,0,1,.53993,4.72347c0,4.84871-1.39944,7.49426-2.11869,7.49426-.70259,0-2.05057-2.5305-2.11283-7.16687-.26093.42744-.53706.8539-.84248,1.27712-.17652.24427-.36323.47932-.54487.719.35566,3.58844,1.54013,6.67083,3.50018,6.67083,2.37553,0,3.61871-4.52449,3.61871-8.99429a20.81672,20.81672,0,0,0-.6139-5.19089,3.55738,3.55738,0,0,0,1.04537-1.20766,4.94681,4.94681,0,0,0,.56348-2.42973C77.1495,62.42572,77.2048,60.92008,77.29642,59.08106Z" data-name="rekia boyd" id="rekia_boyd-2"/></g></svg>