<?xml version="1.0" ?><svg viewBox="0 0 100 100" xmlns="http://www.w3.org/2000/svg"><g data-name="ahmaud arbery" id="ahmaud_arbery"><path d="M68.54,46.5752,67.86816,47.915a9.16384,9.16384,0,0,0-2.64965-.83692,2.08259,2.08259,0,0,1,.0545.47864,2.4057,2.4057,0,0,1-4.8114,0c0-.03332.00848-.06061.00983-.093a8.3737,8.3737,0,0,0-2.65015,1.40441L56.876,47.7041A11.26277,11.26277,0,0,1,68.54,46.5752ZM43.124,47.7041a11.26366,11.26366,0,0,0-11.66455-1.1289l.67285,1.33984a9.14734,9.14734,0,0,1,2.64905-.83667,2.08425,2.08425,0,0,0-.05438.47839,2.4057,2.4057,0,0,0,4.8114,0c0-.0329-.00842-.05981-.0097-.09179a8.39043,8.39043,0,0,1,2.65,1.40319ZM60.7666,37.294a28.71575,28.71575,0,0,0-5.44238,2.05761l1.33789,2.68555a25.6495,25.6495,0,0,1,4.87207-1.84277,10.84059,10.84059,0,0,1,4.20215-.585,8.368,8.368,0,0,1,3.16113.99414l1.43359-2.63477a11.3576,11.3576,0,0,0-4.29-1.34375A13.69374,13.69374,0,0,0,60.7666,37.294ZM38.4668,40.19434a25.68263,25.68263,0,0,1,4.87158,1.84277l1.33691-2.68555a28.66561,28.66561,0,0,0-5.4414-2.05761,13.70354,13.70354,0,0,0-5.27442-.669A11.3572,11.3572,0,0,0,29.669,37.96875l1.43261,2.63477a8.37308,8.37308,0,0,1,3.16162-.99414A10.85545,10.85545,0,0,1,38.4668,40.19434ZM51.83691,73.06543a5.9155,5.9155,0,0,1-1.47949.207,4.86808,4.86808,0,0,1-1.43652-.16992,7.84721,7.84721,0,0,0-1.21045-.20215,8.67042,8.67042,0,0,0-4.46582.94434l.65527,1.34961a7.08276,7.08276,0,0,1,3.69043-.79786,6.26276,6.26276,0,0,1,.99512.168,7.2235,7.2235,0,0,0,3.604-.041,4.8259,4.8259,0,0,1,1.21289-.17774,6.21015,6.21015,0,0,1,2.67774.67774l.67578-1.33985a7.20642,7.20642,0,0,0-3.36816-.83789A6.2387,6.2387,0,0,0,51.83691,73.06543ZM44.8623,80.96387l.59961,1.375a11.00307,11.00307,0,0,1,9.0293.15625l.64649-1.35352A12.51842,12.51842,0,0,0,44.8623,80.96387Zm35.46-28.65039c-.18262.793-.3711,1.61035-.53516,2.46386a24.20208,24.20208,0,0,0-.64941,4.99317c.002.74219.04785,1.40918.08886,1.99707.1084,1.55664.19434,2.78613-.709,3.74023a3.46877,3.46877,0,0,1-2.43884.96448,23.57164,23.57164,0,0,1-.32093,5.63416,23.00844,23.00844,0,0,1-2.64843,7.3623,21.86014,21.86014,0,0,1-10.71,9.22266,21.49459,21.49459,0,0,1-11.30468,3.792c-.27686.01172-.55078.0166-.82178.0166-.09155,0-.18225-.00085-.273-.00177-.0907.00092-.1814.00177-.273.00177-.271,0-.54541-.00488-.82226-.0166a21.49944,21.49944,0,0,1-11.30469-3.792,21.8625,21.8625,0,0,1-10.709-9.22168,22.98045,22.98045,0,0,1-2.64941-7.36328,23.618,23.618,0,0,1-.32019-5.63416,3.47105,3.47105,0,0,1-2.43958-.96448c-.90283-.9541-.81738-2.18359-.709-3.74121.041-.58789.0874-1.25488.08935-1.99609a24.18429,24.18429,0,0,0-.64794-4.98633c-.16456-.86133-.35352-1.67969-.53614-2.47266a19.901,19.901,0,0,1-.7749-6.3457,3.46821,3.46821,0,0,1,.9375-2.2168,3.27835,3.27835,0,0,1,2.73969-.85821c-.61908-6.71381-1.075-13.71039,1.681-19.86133A24.92866,24.92866,0,0,1,32.007,13.54974,29.38277,29.38277,0,0,1,49.99615,7.50055h.0077A29.38277,29.38277,0,0,1,67.993,13.54974a24.92866,24.92866,0,0,1,7.74548,9.47974c2.756,6.15094,2.30011,13.14752,1.681,19.86127a3.27763,3.27763,0,0,1,2.74067.85827,3.46515,3.46515,0,0,1,.93652,2.2168A19.92948,19.92948,0,0,1,80.32227,52.31348Zm-.71973-6.20606a2.03481,2.03481,0,0,0-.501-1.2959,1.78879,1.78879,0,0,0-1.6084-.43359,1.9597,1.9597,0,0,0-1.44238,1.585l-1.47266-.2832a3.693,3.693,0,0,1,.18238-.61951l-.056.03064c1.11847-2.05457.79645-4.5697.15747-6.81311-.88477-3.10645-1.2901-3.64075-1.59418-6.78485-.35156-3.63507.62927-4.49744-.191-6.55713-.47223-1.186-1.31036-2.54395-4.52075-4.281-1.75684-.9505-7.88782-4.02581-18.55218-4.21435h-.0077c-10.66436.18854-16.79534,3.26385-18.55218,4.21435-3.21039,1.73706-4.04852,3.095-4.52075,4.281-.82025,2.05969.16058,2.92206-.191,6.55713-.30408,3.1441-.70941,3.6784-1.59418,6.78485-.639,2.24341-.961,4.75854.15747,6.81311l-.056-.03064a3.686,3.686,0,0,1,.18232.62048l-1.47364.28125a1.95479,1.95479,0,0,0-1.44092-1.584,1.79689,1.79689,0,0,0-1.60839.43359,2.04419,2.04419,0,0,0-.50245,1.2959,18.55167,18.55167,0,0,0,.74317,5.86719c.187.81152.37988,1.64746.54687,2.52148a25.27087,25.27087,0,0,1,.67578,5.27832c-.002.792-.05029,1.48536-.09277,2.09668-.09765,1.39942-.12842,2.15137.30176,2.60547a2.1177,2.1177,0,0,0,1.49744.50568c.03314-.26685.05072-.53418.09289-.8006l1.48145.23438a22.1746,22.1746,0,0,0,.07519,7.4248A21.72489,21.72489,0,0,0,28.187,78.71387,20.35882,20.35882,0,0,0,38.2334,87.3291l.1499.08008a20.01825,20.01825,0,0,0,10.58057,3.57617c.35235.01361.69824.01654,1.03613.01264.33936.00195.68475,0,1.03516-.01264a20.01931,20.01931,0,0,0,10.58105-3.57519l.15039-.08106a20.37393,20.37393,0,0,0,10.04688-8.61523,21.47219,21.47219,0,0,0,2.46777-6.87305,22.16124,22.16124,0,0,0,.0752-7.4248l1.48242-.23438c.04217.2666.05975.53412.09289.80115a2.10645,2.10645,0,0,0,1.496-.50623c.43067-.4541.39942-1.20605.30274-2.60449-.043-.6123-.09082-1.30566-.09277-2.09766a25.20662,25.20662,0,0,1,.67675-5.27929c.167-.87207.35938-1.708.5459-2.51856A18.52937,18.52937,0,0,0,79.60254,46.10742ZM54.77441,61.69922a3.14547,3.14547,0,0,0-1.49316.56445,5.56407,5.56407,0,0,1-1.30566.627,6.30407,6.30407,0,0,1-1.95606.34668,6.55253,6.55253,0,0,1-1.99463-.3457,5.60414,5.60414,0,0,1-1.30615-.62793,3.14956,3.14956,0,0,0-1.49414-.56445,4.48847,4.48847,0,0,0-2.37891.46191l.64551,1.35352a3.03486,3.03486,0,0,1,1.5918-.32129,1.71393,1.71393,0,0,1,.84521.34473,7.05306,7.05306,0,0,0,1.62207.77636,7.97965,7.97965,0,0,0,2.46924.42285,7.83047,7.83047,0,0,0,2.43067-.42382,7.03934,7.03934,0,0,0,1.62207-.77539,1.7093,1.7093,0,0,1,.84375-.34473,3.00577,3.00577,0,0,1,1.59375.32129l.64453-1.35352A4.51663,4.51663,0,0,0,54.77441,61.69922ZM24.97852,54.17383l-.68262-1.33594a2.39981,2.39981,0,0,0-1.02783.96875,4.48937,4.48937,0,0,0-.25245,2.21094,4.48187,4.48187,0,0,0,.25293,2.21094,2.396,2.396,0,0,0,1.02735.96875l.68262-1.33594a.92479.92479,0,0,1-.40088-.36426,7.45345,7.45345,0,0,1-.062-1.47656l-.25-.00391.25-.00293v-.00293a7.4613,7.4613,0,0,1,.06153-1.47168A.92487.92487,0,0,1,24.97852,54.17383Zm51.75293-.59473a2.39405,2.39405,0,0,0-1.02637-.96875l-.6836,1.33594a.91418.91418,0,0,1,.40137.36523,7.47285,7.47285,0,0,1,.06153,1.47461l.25.00293-.25.00391v.00293a7.43252,7.43252,0,0,1-.06153,1.47168.92091.92091,0,0,1-.40137.36621l.6836,1.33594a2.4389,2.4389,0,0,0,1.02637-.96875A4.47762,4.47762,0,0,0,76.98438,55.79,4.47762,4.47762,0,0,0,76.73145,53.5791Z" data-name="ahmaud arbery" id="ahmaud_arbery-2"/></g></svg>