<?xml version="1.0" ?><!DOCTYPE svg  PUBLIC '-//W3C//DTD SVG 1.1//EN'  'http://www.w3.org/Graphics/SVG/1.1/DTD/svg11.dtd'><svg enable-background="new 0 0 24 24" height="24px" id="Layer_1" version="1.1" viewBox="0 0 24 24" width="24px" xml:space="preserve" xmlns="http://www.w3.org/2000/svg" xmlns:xlink="http://www.w3.org/1999/xlink"><g><rect height="2" width="2" x="11"/><path d="M13,7.1V3h-2v4.1c-1.7,0.4-3,2-3,3.9v12c0,0.6,0.4,1,1,1h6c0.6,0,1-0.4,1-1V11C16,9.1,14.7,7.6,13,7.1z M14,22h-4v-6h4V22z    M14,15h-4v-3h4V15z M10,11c0-1.1,0.9-2,2-2s2,0.9,2,2H10z"/></g></svg>